<svg viewBox="0 0 46 60" width="512" xmlns="http://www.w3.org/2000/svg">
    <g id="Page-1" fill="none" fill-rule="evenodd">
        <g id="025---Cupcake" fill-rule="nonzero" transform="translate(-1)">
            <g id="Icons" transform="translate(1 3)">
                <path id="Shape"
                      d="m41.93 37.46c-.33 1.83-1.91 8.95-7.93 17.54 0 0-2 1-11 1s-11-1-11-1c-6.02-8.59-7.6-15.71-7.93-17.54.37957484.2580968.78112327.4822947 1.2.67 3.25 1.47 7.96 1.53 10.58-1.23.08-.08.15-.17.23-.26.2126283-.2432449.5296747-.3687778.8511875-.3370235.3215128.0317544.6078766.2168834.7688125.4970235 1.0355521 1.9679337 3.076235 3.2000717 5.3 3.2000717s4.2644479-1.232138 5.3-3.2000717c.1609359-.2801401.4472997-.4652691.7688125-.4970235.3215128-.0317543.6385592.0937786.8511875.3370235.08.09.15.18.23.26 2.62 2.76 7.33 2.7 10.58 1.23.4188767-.1877053.8204252-.4119032 1.2-.67z"
                      fill="#ffe0b2"/>
                <path id="Shape"
                      d="m40.73 38.13c-.6726935.3013651-1.3734008.5358274-2.092.7-1.5245958 5.8157905-4.1143712 11.2984652-7.638 16.17 0 0-1.778.886-9.5.99.478.006.975.01 1.5.01 9 0 11-1 11-1 6.02-8.59 7.6-15.71 7.93-17.54-.3795748.2580968-.7811233.4822947-1.2.67z"
                      fill="#dfc49c"/>
                <path id="Shape"
                      d="m44.03 35.32c-.5326494.8575236-1.2501176 1.5852413-2.1 2.13v.01c-.3795748.2580968-.7811233.4822947-1.2.67-3.25 1.47-7.96 1.53-10.58-1.23-.08-.08-.15-.17-.23-.26-.2126283-.2432449-.5296747-.3687778-.8511875-.3370235-.3215128.0317544-.6078766.2168834-.7688125.4970235-1.0355521 1.9679337-3.076235 3.2000717-5.3 3.2000717s-4.2644479-1.232138-5.3-3.2000717c-.1609359-.2801401-.4472997-.4652691-.7688125-.4970235-.3215128-.0317543-.6385592.0937786-.8511875.3370235-.08.09-.15.18-.23.26-2.62 2.76-7.33 2.7-10.58 1.23-.41887673-.1877053-.82042516-.4119032-1.2-.67-.84808362-.5511664-1.56493186-1.2816689-2.1-2.14-.96838026-1.8005166-1.2253408-3.8990277-.72-5.88.51055012-2.0975785 1.34022159-4.1043042 2.46-5.95.02806252.1507528.07162719.2982025.13.44.25866164.7421588.98676856 1.2152226 1.77 1.15.373021-.0772929.71840572-.2534391 1-.51.41-.34.76-.74 1.15-1.1.62399467-.620577 1.49516737-.9256712 2.37-.83.7691365.1040316 1.4265476.60564 1.73 1.32.6 1.57-.97 3.24-.76 4.91.1243013 1.005369.8771097 1.8188659 1.8698466 2.0205864s2.0033356-.2534585 2.5101534-1.1305864c.4371747-.9402236.4839207-2.0153809.13-2.99-.34-1.31-.8-3.02-.01-4.25.6775764-1.0222521 1.9091505-1.5291379 3.11-1.28 1.4356746.3909336 2.3813464 1.7587803 2.24 3.24-.1.85-.55 1.69-.31 2.51.2697831.7761827 1.0442785 1.2592013 1.86 1.16.8068224-.1267739 1.4685511-.7067597 1.7-1.49.43-1.36-.41-2.93.21-4.22.6022031-1.0276878 1.828678-1.5108446 2.97-1.17 1.1116722.3603505 2.0561086 1.1095087 2.66 2.11.64.96 1.09 2.04 1.66 3.04.304082.6529894.8329612 1.1747696 1.49 1.47 1.68.55 2.31-1.53 2.22-2.78-.08-1.02-.91-2.88.28-3.59.5867368-.2418094 1.2459409-.2382071 1.83.01.9.27 1.79.56 2.69.8.2375508.0750225.4924492.0750225.73 0 .1856105-.063396.3396274-.1959222.43-.37 1.546346 2.2815766 2.6896104 4.811641 3.38 7.48.5053408 1.9809723.2483803 4.0794834-.72 5.88z"
                      fill="#a0522d"/>
                <path id="Shape"
                      d="m44.75 29.44c-.6903896-2.668359-1.833654-5.1984234-3.38-7.48-.0903726.1740778-.2443895.306604-.43.37-.2375508.0750225-.4924492.0750225-.73 0-.9-.24-1.79-.53-2.69-.8-.5840591-.2482071-1.2432632-.2518094-1.83-.01-.1178603.0726513-.2223775.1649917-.309.273.609.188 1.217.374 1.829.537.2375508.0750225.4924492.0750225.73 0 .1856105-.063396.3396274-.1959222.43-.37 1.546346 2.2815766 2.6896104 4.811641 3.38 7.48.5053408 1.9809723.2483803 4.0794834-.72 5.88-.5326494.8575236-1.2501176 1.5852413-2.1 2.13v.01c-.3795748.2580968-.7811233.4822947-1.2.67-1.0154943.4530104-2.0913845.7561729-3.194.9 2.1081651.278175 4.2521795-.0333544 6.194-.9.4188767-.1877053.8204252-.4119032 1.2-.67v-.01c.8498824-.5447587 1.5673506-1.2724764 2.1-2.13.9683803-1.8005166 1.2253408-3.8990277.72-5.88z"
                      fill="#783e22"/>
                <path id="Shape"
                      d="m41.37 21.96c-.0903726.1740778-.2443895.306604-.43.37-.2375508.0750225-.4924492.0750225-.73 0-.9-.24-1.79-.53-2.69-.8-.5840591-.2482071-1.2432632-.2518094-1.83-.01-1.19.71-.36 2.57-.28 3.59.09 1.25-.54 3.33-2.22 2.78-.6570388-.2952304-1.185918-.8170106-1.49-1.47-.57-1-1.02-2.08-1.66-3.04-.6038914-1.0004913-1.5483278-1.7496495-2.66-2.11-1.141322-.3408446-2.3677969.1423122-2.97 1.17-.62 1.29.22 2.86-.21 4.22-.2314489.7832403-.8931776 1.3632261-1.7 1.49-.8157215.0992013-1.5902169-.3838173-1.86-1.16-.24-.82.21-1.66.31-2.51.1413464-1.4812197-.8043254-2.8490664-2.24-3.24-1.2008495-.2491379-2.4324236.2577479-3.11 1.28-.79 1.23-.33 2.94.01 4.25.3539207.9746191.3071747 2.0497764-.13 2.99-.5068178.8771279-1.5174165 1.3323069-2.5101534 1.1305864s-1.7455453-1.0152174-1.8698466-2.0205864c-.21-1.67 1.36-3.34.76-4.91-.3034524-.71436-.9608635-1.2159684-1.73-1.32-.87483263-.0956712-1.74600533.209423-2.37.83-.39.36-.74.76-1.15 1.1-.28159428.2565609-.626979.4327071-1 .51-.78323144.0652226-1.51133836-.4078412-1.77-1.15-.05837281-.1417975-.10193748-.2892472-.13-.44-.09019696-.5016972-.06971972-1.0170413.06-1.51.25753849-.9561714.68060018-1.8598311 1.25-2.67 1.03224563-1.4135815 2.30089343-2.6382496 3.75-3.62.92681387-.6484753 1.8882358-1.2460258 2.88-1.79 1.1982345-.6693025 2.4450797-1.247598 3.73-1.73 1.2541649 2.0027482 3.1672639 3.5056448 5.41 4.25.01 0 .03.01.04.01 2.2926778.1138611 4.5901136.090486 6.88-.07 1.9237395-.7223594 3.5312703-2.0997371 4.54-3.89 2.7644155 1.1960843 5.2299922 2.9889206 7.22 5.25.6191817.6612526 1.1228596 1.4218401 1.49 2.25.2.49.69 1.43.41 1.99z"
                      fill="#ffdc00"/>
                <path id="Shape"
                      d="m40.96 19.97c-.3671404-.8281599-.8708183-1.5887474-1.49-2.25-1.9900078-2.2610794-4.4555845-4.0539157-7.22-5.25-.2218416.4047615-.4788305.789241-.768 1.149 1.8707573 1.0917999 3.5547202 2.4759714 4.988 4.1.6191817.6612526 1.1228596 1.4218401 1.49 2.25.3169873.5585598.4756784 1.1929784.459 1.835.6.183 1.192.365 1.791.525.2375508.0750225.4924492.0750225.73 0 .1856105-.063396.3396274-.1959222.43-.37.28-.559-.21-1.499-.41-1.989z"
                      fill="#fec108"/>
                <path id="Shape"
                      d="m32.25 12.47c-1.0087297 1.7902629-2.6162605 3.1676406-4.54 3.89-2.2898864.160486-4.5873222.1838611-6.88.07-.01 0-.03-.01-.04-.01-2.2427361-.7443552-4.1558351-2.2472518-5.41-4.25-2.07-3.35-1.88-7.64 1.03-10.26.6836831-.62808176 1.5008137-1.09305982 2.39-1.36 1.4518595-.39044535 3.0025533-.09577669 4.21.8.6371398.46559471 1.1322509 1.0991984 1.43 1.83.1139445.26688387.3359727.47274544.6106936.56622686s.5762296.06576783.8293064-.07622686c.6786392-.39485346 1.4553873-.58904047 2.24-.56 1.5027424.03871717 2.9071791.75564167 3.82 1.95.5461839.76115097.9120803 1.6365667 1.07 2.56.3141603 1.65592609.0456341 3.3695468-.76 4.85z"
                      fill="#ef314c"/>
                <path id="Shape"
                      d="m33.01 7.62c-.1579197-.9234333-.5238161-1.79884903-1.07-2.56-.9128209-1.19435833-2.3172576-1.91128283-3.82-1.95-.5362631-.01329431-1.0703279.07317332-1.575.255.9521615.31086886 1.7873875.90372244 2.395 1.7.5461839.76115097.9120803 1.6365667 1.07 2.56.3141603 1.65592609.0456341 3.3695468-.76 4.85-1.0087297 1.7902629-2.6162605 3.1676406-4.54 3.89-.919.063-1.79.1-2.636.117 1.652.046 3.556.026 5.636-.117 1.9237395-.7223594 3.5312703-2.0997371 4.54-3.89.806794-1.4818723 1.0753526-3.19746723.76-4.855z"
                      fill="#bb193b"/>
                <g fill="#ef314c">
                    <path id="Shape" d="m31.13 16.03c-1.18.15-2.32.26-3.42.33"/>
                    <path id="Shape" d="m20.83 16.43c-1.6164136-.0587412-3.2286308-.2022719-4.83-.43"/>
                    <path id="Shape"
                          d="m19.9 4.077c-.5196404-.05240536-1.0348828.13455402-1.4.508-.3590605.37373437-.6300047.82303012-.793 1.315"/>
                </g>
            </g>
            <g id="Layer_11">
                <path id="Shape"
                      d="m18.708 9.9c-.3275571-.0000402-.6343284-.16049693-.8211918-.42952432-.1868633-.26902738-.2301256-.61251449-.1158082-.91947568.2087875-.63365016.5609145-1.21060466 1.029-1.686.5889499-.59123753 1.4176032-.87790877 2.246-.777.3587172.04741524.6638389.28491166.7978485.62101825.1340097.33610659.0760004.71838758-.1516856.99960863-.2276861.28122105-.5895278.41750906-.9461629.35637312-.2115506.00002362-.4137481.08719645-.559.241-.2492259.26973522-.4353815.59149407-.545.942-.1450394.39073675-.5172153.65054258-.934.652z"
                      fill="#f5f5f5"/>
                <g fill="#000">
                    <path id="Shape"
                          d="m4.159 41.019c1.46337097 6.3325691 4.192042 12.3038755 8.022 17.555 1.328 1.9 22.308 1.9 23.638 0 3.829958-5.2511245 6.558629-11.2224309 8.022-17.555 2.877-2.141 3.616-5.281 2.888-8.787-.6666768-2.6491579-1.7795822-5.1654535-3.291-7.441.0059569-.7702897-.1850906-1.5293161-.555-2.205-1.22-2.932-5.221-6.081-8.318-7.6 1.0000309-2.4888943.6904684-5.31285474-.825-7.526-1.4674478-1.95777221-3.9982544-2.79552345-6.344-2.1 1.452-3.754 3.989-4.2 7.428-2.143.4723647.26900385 1.0731021.11140321 1.3525776-.35484239.2794755-.46624559.1353168-1.0703496-.3245776-1.36015761-4.859-2.911-8.51-1.391-10.264 2.998-1.4661444-1.77541036-3.8381344-2.52443922-6.058-1.913-4.237 1.185-7.155 6.641-4.551 12.086-4.5 1.9-9.95 5.342-11.18 10.069-.11791026.4985561-.15170873 1.0133068-.1 1.523-2.936 5.235-4.399 11.143.46 14.754zm30.2 16.152c-3.6 1.114-17.134 1.111-20.716 0-3.2091909-4.5088289-5.61960809-9.5356617-7.126-14.861 3.545 1.344 8.289 1.192 11.062-1.728.0912327-.0899541.1711559-.1906976.238-.3 1.2080637 2.2863548 3.5813016 3.717328 6.1671931 3.7185856 2.5858915.0012575 4.96052-1.4274068 6.1708069-3.7125856 2.642 3.131 7.54 3.463 11.327 2.027-1.5062817 5.3232868-3.915637 10.34833-7.123 14.856zm-16.288-51.51c2.678-2.362 5.675-1.064 6.441.891.2230396.53901873.6681069.95537369 1.2207812 1.14202582.5526742.18665213 1.1590435.12539399 1.6632188-.16802582 1.646093-.82017772 3.6432832-.34383396 4.742 1.131.4571407.6390914.7613014 1.3746881.889 2.15.607 3.2-1.3 6.245-4.576 7.571-2.1357169.134066-4.2770051.1557627-6.415.065-6.059-2.143-7.904-9.237-3.965-12.782zm-12.333 19.571c1.058-4.061 6.408-7.241 10.274-8.825.4434026.6034927.9484611 1.1591577 1.507 1.658-.222-.03-.349-.05-.357-.052-.545105-.0894701-1.0595298.279895-1.149.825-.0894701.545105.279895 1.0595298.825 1.149 5.1169016.6864786 10.3016918.6995902 15.422.039.455257-.0561744.8126274-.4171553.8642227-.8729539.0515954-.4557986-.2160419-.887529-.6472227-1.0440461.4205298-.409337.8012386-.8576827 1.137-1.339 2.985 1.455 6.833 4.373 7.828 7.587-2.488-.666-3.922-1.486-5.264-.7-1.882 1.123-.837 3.618-.765 4.521.0663351.6236861-.118647 1.2480906-.514 1.735-.05.041-.138.107-.4.023-1.425-.467-2.074-5.656-5.861-6.635-1.6060087-.4810469-3.3295038.2280387-4.132 1.7-.815 1.694.1 3.2-.266 4.364-.1185082.404568-.4537931.7085647-.868.787-.3294352.0393203-.6452515-.1436494-.775-.449-.137-.466.241-1.243.343-2.111.2021507-1.9850164-1.0705011-3.8218772-3-4.33-1.6143432-.35028-3.2776765.3299215-4.184 1.711-1.677 2.611.781 5.691-.143 7.277-.2907102.5068-.8731725.7706319-1.4458576.654915-.5726852-.1157169-1.0070137-.5850017-1.0781424-1.164915-.164-1.314 1.464-3.15.7-5.142s-3.556-2.825-5.713-.869c-.6.556-1.2 1.29-1.635 1.359s-1.006-.624-.703-1.856zm-.966 3.254c.54781925.4758147 1.27623979.6884229 1.994.582.88757138-.2249381 1.67732131-.7337633 2.249-1.449.4516282-.6365416 1.1897126-1.0074571 1.97-.99.4110315.0524478.7663554.3122383.941.688.406 1.063-1.06 2.756-.817 4.686.1813903 1.4286155 1.2537554 2.582389 2.6653061 2.8676422s2.8477891-.361569 3.5696939-1.6076422c1.486-2.551-1-5.493.092-7.194.4498645-.6677426 1.2536072-1.0041748 2.045-.856.9405122.2747074 1.5576087 1.1735947 1.476 2.15-.3171061.9335905-.4119549 1.9283042-.277 2.905.4036609 1.2459432 1.6326241 2.0320104 2.933 1.876 1.2017453-.1665377 2.1952601-1.0200768 2.541-2.183.5-1.582-.281-3.176.158-4.088.3985467-.5902577 1.1375505-.8485226 1.817-.635 1.884.488 2.73 2.973 3.7 4.675 1.277 2.254 3.15 2.477 4.3 1.58.9324461-.8976864 1.402581-2.1728719 1.276-3.461-.0348915-.3367387-.0920161-.6708011-.171-1-.544-2.542-.1-1.761 3.731-.736.3469031.0899989.7102412.0961688 1.06.018 1.2549971 1.94413 2.1820129 4.0812662 2.744 6.326.711 3.408-.3 6.138-3.453 7.575-3.035 1.373-7.474 1.35-9.633-1.221-.4235573-.4990221-1.0655177-.7577138-1.7167306-.6917934-.651213.0659203-1.2283086.4480134-1.5432694 1.0217934-.8163648 1.6873162-2.5495279 2.7359132-4.423 2.676-1.8730385.0616208-3.6068809-.9849539-4.425-2.671-.3149727-.574446-.8926206-.9569497-1.5444442-1.0226916-.6518235-.0657419-1.2942182.1937104-1.7175558.6936916-2.135 2.552-6.572 2.6-9.629 1.22-4.798-2.185-4.277-7.045-1.912-11.734z"/>
                    <path id="Shape"
                          d="m13.949 45.684c-.1128959-.3394023-.398285-.5927937-.748664-.6647242-.350379-.0719304-.712517.0485281-.95.316-.2374831.2674719-.3142319.6413219-.201336.9807242.084.25 2.066 6.163 4.117 9.239.1982824.297245.5400812.4661283.8966441.4430332s.6737195-.2346599.832-.555.1336383-.7007882-.0646441-.9980332c-1.9-2.852-3.862-8.702-3.881-8.761z"/>
                    <path id="Shape"
                          d="m21 46c-.5522847 0-1 .4477153-1 1v7c0 .5522847.4477153 1 1 1s1-.4477153 1-1v-7c0-.5522847-.4477153-1-1-1z"/>
                    <path id="Shape"
                          d="m35.316 45.051c-.2516889-.0838718-.5263908-.0642936-.763641.0544253-.2372501.1187188-.4176022.3268475-.501359.5785747-.019.059-1.979 5.906-3.883 8.761-.1982824.297245-.2229246.6776931-.0646441.9980331.1582805.3203401.4754371.5319049.832.555s.6983617-.1457881.8966441-.4430331c2.051-3.076 4.033-8.989 4.117-9.239.0838718-.2516889.0642936-.5263908-.0544253-.763641-.1187188-.2372501-.3268475-.4176022-.5785747-.501359z"/>
                    <path id="Shape"
                          d="m27 46c-.5522847 0-1 .4477153-1 1v7c0 .5522847.4477153 1 1 1s1-.4477153 1-1v-7c0-.5522847-.4477153-1-1-1z"/>
                </g>
            </g>
        </g>
    </g>
</svg>